<?xml version="1.0" encoding="UTF-8" standalone="no"?>
<!-- Created with Inkscape (http://www.inkscape.org/) -->

<svg
   xmlns:dc="http://purl.org/dc/elements/1.1/"
   xmlns:cc="http://creativecommons.org/ns#"
   xmlns:rdf="http://www.w3.org/1999/02/22-rdf-syntax-ns#"
   xmlns:svg="http://www.w3.org/2000/svg"
   xmlns="http://www.w3.org/2000/svg"
   xmlns:sodipodi="http://sodipodi.sourceforge.net/DTD/sodipodi-0.dtd"
   xmlns:inkscape="http://www.inkscape.org/namespaces/inkscape"
   width="18.288132mm"
   height="10.067682mm"
   viewBox="0 0 64.800467 35.67289"
   id="svg2"
   version="1.1"
   inkscape:version="0.91 r13725"
   sodipodi:docname="CuttleFish.svg">
  <defs
     id="defs4" />
  <sodipodi:namedview
     id="base"
     pagecolor="#ffffff"
     bordercolor="#666666"
     borderopacity="1.0"
     inkscape:pageopacity="0.0"
     inkscape:pageshadow="2"
     inkscape:zoom="1"
     inkscape:cx="-14.919207"
     inkscape:cy="34.889222"
     inkscape:document-units="px"
     inkscape:current-layer="layer1"
     showgrid="false"
     fit-margin-top="0"
     fit-margin-left="0"
     fit-margin-right="0"
     fit-margin-bottom="0"
     inkscape:window-width="1440"
     inkscape:window-height="897"
     inkscape:window-x="-8"
     inkscape:window-y="-8"
     inkscape:window-maximized="1" />
  <metadata
     id="metadata7">
    <rdf:RDF>
      <cc:Work
         rdf:about="">
        <dc:format>image/svg+xml</dc:format>
        <dc:type
           rdf:resource="http://purl.org/dc/dcmitype/StillImage" />
        <dc:title></dc:title>
      </cc:Work>
    </rdf:RDF>
  </metadata>
  <g
     inkscape:label="Layer 1"
     inkscape:groupmode="layer"
     id="layer1"
     transform="translate(-353.31402,-451.66863)">
    <g
       transform="translate(-2962.0585,-5556.6179)"
       style="opacity:1"
       id="g7340">
      <path
         sodipodi:nodetypes="zssssszsssszzzz"
         inkscape:connector-curvature="0"
         id="path7685"
         d="m 3337.8042,6033.8997 c 0.8315,1.7361 1.6283,6.4391 4.5132,8.3534 2.9608,1.9646 7.3514,-1.423 10.3487,-0.2317 3.3355,1.3259 5.683,2.6739 9.8605,1.4706 3.154,-0.9086 4.9192,-3.3987 7.3798,-5.3759 4.4991,-3.6152 10.0743,-2.3614 10.2663,-9.3281 0.02,-0.7207 -1.0271,-1.6656 -1.0292,-2.6142 0,-0.9487 1.0406,-1.9911 1.0176,-2.7117 -0.2221,-6.9658 -5.7912,-5.3916 -10.3059,-8.9874 -2.4691,-1.9665 -4.468,-4.9664 -7.6259,-5.8613 -4.1826,-1.1852 -6.3005,1.1339 -9.6302,2.4742 -2.9921,1.2043 -7.4361,-2.5824 -10.3505,-0.6303 -2.9144,1.9521 -3.31,6.2581 -4.477,8.3728 -1.167,2.1146 0.5613,5.9332 0.539,7.6353 -0.022,1.7021 -1.3378,5.6983 -0.5064,7.4343 z"
         style="fill:#b76b69;fill-opacity:1;fill-rule:evenodd;stroke:none;stroke-width:1px;stroke-linecap:round;stroke-linejoin:miter;stroke-opacity:1" />
      <path
         sodipodi:nodetypes="sssssss"
         inkscape:connector-curvature="0"
         id="path7687"
         d="m 3352.658,6038.2582 c -12.3552,0.027 -13.3938,-5.9432 -13.4072,-12.1497 -0.013,-6.2066 0.999,-12.2855 13.3543,-12.3123 5.1899,-0.011 12.1257,1.3262 16.1019,3.2725 5.4006,2.6436 7.7514,5.2552 7.7591,8.8546 0.01,3.4608 -1.5987,6.8514 -6.8935,9.2119 -4.201,1.8729 -11.4486,3.1111 -16.9146,3.123 z"
         style="opacity:1;fill:#f0b3a6;fill-opacity:1;fill-rule:nonzero;stroke:none;stroke-width:2;stroke-linecap:round;stroke-linejoin:round;stroke-miterlimit:4;stroke-dasharray:none;stroke-opacity:1" />
      <path
         sodipodi:nodetypes="zzcsszcssssszssscccsscczzczzz"
         inkscape:connector-curvature="0"
         d="m 3334.9741,6034.7399 c -0.9711,0.7301 -5.6984,0.5121 -7.9764,0.6061 -2.278,0.094 -4.1389,-0.045 -6.4281,-0.4393 -1.517,-0.2612 -5.1667,-2.9152 -5.0275,-3.572 0.136,-0.6419 4.0254,0.7631 5.9941,1.0041 1.228,0.1503 6.6977,0.1873 7.0151,-0.1416 0.3175,-0.3288 -4.3301,-0.383 -6.6509,-0.4823 -1.5379,-0.066 -6.0611,-1.122 -6.0067,-1.7912 0.055,-0.6748 5.6187,-0.094 6.7803,-0.2282 4.0991,-0.4744 7.4466,0.063 7.045,-0.3651 -0.3976,-0.4244 -3.726,-0.216 -8.1922,-0.3321 -1.169,-0.03 -6.096,0.1417 -6.1537,-0.5329 -0.057,-0.6689 4.08,-1.7442 6.7014,-1.7078 2.6214,0.036 4.8572,0.1194 5.3384,-0.2032 0.9292,-0.6231 -1.3465,-0.5281 -3.5002,-0.1858 -2.2315,0.3545 -8.4409,-0.5187 -8.4748,-1.2442 -0.031,-0.6707 4.241,-0.804 5.7803,-0.8171 l 0,0 c 2.3228,-0.02 4.3124,-0.7457 7.3525,-0.7592 0.4474,-0.3788 -2.7276,-0.2736 -6.0852,-0.3043 -3.4381,-0.032 -6.9416,0.4437 -6.9928,-0.2401 -0.05,-0.6695 3.7314,-1.9184 5.2706,-1.9375 1.8998,-0.024 3.7379,-1.6283 6.562,-1.4482 1.419,-0.2834 -5.0433,-0.5136 -6.3344,-0.177 -1.2912,0.3365 -5.3318,1.7515 -5.4722,1.1028 -0.1403,-0.6487 3.4962,-3.326 5.012,-3.5938 2.2875,-0.4041 3.9687,-0.7324 6.1302,-0.6143 2.1614,0.1181 7.5786,0.079 8.2749,0.7187 0.6964,0.6396 1.0095,16.9555 0.038,17.6855 z"
         style="fill:#b76b69;fill-opacity:1;fill-rule:evenodd;stroke:none;stroke-width:1px;stroke-linecap:butt;stroke-linejoin:miter;stroke-opacity:1"
         id="path7689" />
      <path
         sodipodi:nodetypes="csaasc"
         inkscape:connector-curvature="0"
         id="path7691"
         d="m 3330.5146,6031.7006 c -1.4478,-2.616 -1.4426,-8.7907 -0.045,-11.4852 1.3976,-2.6945 8.6191,-6.5201 12.0905,-4.065 5.4397,3.8471 5.7266,16.1105 0.3067,19.9855 -3.5587,2.5444 -10.9044,-1.8191 -12.3522,-4.4353 z"
         style="opacity:1;fill:#b76b69;fill-opacity:1;fill-rule:nonzero;stroke:none;stroke-width:2;stroke-linecap:round;stroke-linejoin:round;stroke-miterlimit:4;stroke-dasharray:none;stroke-opacity:1" />
      <circle
         transform="matrix(0.00216472,0.99999766,-0.99999766,0.00216472,0,0)"
         r="1.6631953"
         cy="-3327.8413"
         cx="6025.1465"
         id="circle7693"
         style="opacity:1;fill:#ffffff;fill-opacity:1;fill-rule:nonzero;stroke:none;stroke-width:2;stroke-linecap:round;stroke-linejoin:round;stroke-miterlimit:4;stroke-dasharray:none;stroke-opacity:1" />
      <circle
         transform="matrix(0.00216472,0.99999766,-0.99999766,0.00216472,0,0)"
         r="1.6631953"
         cy="-3327.7305"
         cx="6041.3721"
         id="circle7695"
         style="opacity:1;fill:#ffffff;fill-opacity:1;fill-rule:nonzero;stroke:none;stroke-width:2;stroke-linecap:round;stroke-linejoin:round;stroke-miterlimit:4;stroke-dasharray:none;stroke-opacity:1" />
    </g>
  </g>
</svg>
